# xmcd
#
# Track frame offsets: 
#        150
#        19526
#        35255
#        53329
#        71730
#        92718
#        111567
#        131318
#        146143
#        162527
#
# Disc length: 2362 seconds
#
# Revision: 0
# Processed by: cddbd v1.5.2PL0 Copyright (c) Steve Scherf et al.
# Submitted via: ExactAudioCopy v1.0b3
#
DISCID=8509380a
DTITLE=Willie Croes - La and de las partes
DYEAR=2009
DGENRE=Alternative
TTITLE0=If I Had You (con Pecado Original y Bless Killa)
TTITLE1=Monedas Al Aire (con Guillermo Carrasco)
TTITLE2=Taxi (con Julio Briceno)
TTITLE3=Amor Gitano (con Colina)
TTITLE4=No Le Digas Nada (con Sergio Pérez, Trina Medina y MC Breker)
TTITLE5=El Ciego (con Ezequiel Serrano Valencia)
TTITLE6=Joven (con Napoleón Pabón)
TTITLE7=Tiempo Para Amar (con Pedro Castillo)
TTITLE8=Todo Pasará (con Frank Quintero)
TTITLE9=I Touch Myself (con Elisa Rego y Bless Killa)
EXTD=
EXTT0=
EXTT1=
EXTT2=
EXTT3=
EXTT4=
EXTT5=
EXTT6=
EXTT7=
EXTT8=
EXTT9=
PLAYORDER=
